<svg width="52" height="43" viewBox="0 0 52 43" fill="none" xmlns="http://www.w3.org/2000/svg">
<path d="M44.7688 10.9031H7.30645C4.72022 10.9031 2.62366 12.793 2.62366 15.1243V36.2302C2.62366 38.5615 4.72022 40.4514 7.30645 40.4514H44.7688C47.3551 40.4514 49.4516 38.5615 49.4516 36.2302V15.1243C49.4516 12.793 47.3551 10.9031 44.7688 10.9031Z" stroke="white" stroke-width="5" stroke-linecap="round" stroke-linejoin="round"/>
<path d="M35.6787 40.4514V6.8904C35.6787 5.77779 35.1708 4.71074 34.2668 3.924C33.3628 3.13727 32.1367 2.69528 30.8582 2.69528H21.2171C19.9386 2.69528 18.7125 3.13727 17.8085 3.924C16.9045 4.71074 16.3966 5.77779 16.3966 6.8904V40.4514" stroke="white" stroke-width="5" stroke-linecap="round" stroke-linejoin="round"/>
</svg>
