<svg width="11" height="11" viewBox="0 0 11 11" fill="none" xmlns="http://www.w3.org/2000/svg">
<path d="M5.44 0.0533447C2.448 0.0533447 0 2.50134 0 5.49334C0 8.48534 2.448 10.9333 5.44 10.9333C8.432 10.9333 10.88 8.48534 10.88 5.49334C10.88 2.50134 8.432 0.0533447 5.44 0.0533447ZM8.16 5.49334C8.16 5.8689 7.85555 6.17335 7.48 6.17335H6.46C5.52112 6.17335 4.76 5.41223 4.76 4.47334V3.45334C4.76 3.07779 5.06445 2.77334 5.44 2.77334C5.81555 2.77334 6.12 3.07779 6.12 3.45334V3.79334C6.12 4.35668 6.57667 4.81334 7.14 4.81334H7.48C7.85555 4.81334 8.16 5.11779 8.16 5.49334Z" fill="#F8A33A"/>
</svg>
