<svg width="35" height="35" viewBox="0 0 35 35" fill="none" xmlns="http://www.w3.org/2000/svg">
<path d="M27.7083 16.0417H7.29167C5.68084 16.0417 4.375 17.3475 4.375 18.9584V29.1667C4.375 30.7775 5.68084 32.0834 7.29167 32.0834H27.7083C29.3192 32.0834 30.625 30.7775 30.625 29.1667V18.9584C30.625 17.3475 29.3192 16.0417 27.7083 16.0417Z" stroke="#3B57E8" stroke-width="2" stroke-linecap="round" stroke-linejoin="round"/>
<path d="M10.2083 16.0417V10.2084C10.2083 8.27448 10.9765 6.41982 12.344 5.05237C13.7114 3.68491 15.5661 2.91669 17.5 2.91669C19.4338 2.91669 21.2885 3.68491 22.656 5.05237C24.0234 6.41982 24.7916 8.27448 24.7916 10.2084V16.0417" stroke="#3B57E8" stroke-width="2" stroke-linecap="round" stroke-linejoin="round"/>
</svg>
