<svg width="44" height="44" viewBox="0 0 44 44" fill="none" xmlns="http://www.w3.org/2000/svg">
<rect width="43.52" height="43.52" rx="10" fill="#36D14F"/>
<path d="M27.6483 15.7831H16.2089V25.6973H27.6483V15.7831Z" stroke="white" stroke-width="2" stroke-linecap="round" stroke-linejoin="round"/>
<path d="M27.6483 19.5963H30.6988L32.9867 21.8842V25.6974H27.6483V19.5963Z" stroke="white" stroke-width="2" stroke-linecap="round" stroke-linejoin="round"/>
<path d="M19.6407 29.5105C20.6937 29.5105 21.5473 28.6569 21.5473 27.604C21.5473 26.551 20.6937 25.6974 19.6407 25.6974C18.5877 25.6974 17.7341 26.551 17.7341 27.604C17.7341 28.6569 18.5877 29.5105 19.6407 29.5105Z" stroke="white" stroke-width="2" stroke-linecap="round" stroke-linejoin="round"/>
<path d="M29.5549 29.5105C30.6079 29.5105 31.4615 28.6569 31.4615 27.604C31.4615 26.551 30.6079 25.6974 29.5549 25.6974C28.5019 25.6974 27.6483 26.551 27.6483 27.604C27.6483 28.6569 28.5019 29.5105 29.5549 29.5105Z" stroke="white" stroke-width="2" stroke-linecap="round" stroke-linejoin="round"/>
</svg>
