<svg width="44" height="44" viewBox="0 0 44 44" fill="none" xmlns="http://www.w3.org/2000/svg">
<rect width="43.52" height="43.52" rx="10" fill="#36D14F"/>
<path d="M27.6484 15.7831H16.209V25.6973H27.6484V15.7831Z" stroke="white" stroke-width="2" stroke-linecap="round" stroke-linejoin="round"/>
<path d="M27.6484 19.5963H30.699L32.9868 21.8842V25.6974H27.6484V19.5963Z" stroke="white" stroke-width="2" stroke-linecap="round" stroke-linejoin="round"/>
<path d="M19.6407 29.5105C20.6937 29.5105 21.5473 28.6569 21.5473 27.604C21.5473 26.551 20.6937 25.6974 19.6407 25.6974C18.5877 25.6974 17.7341 26.551 17.7341 27.604C17.7341 28.6569 18.5877 29.5105 19.6407 29.5105Z" stroke="white" stroke-width="2" stroke-linecap="round" stroke-linejoin="round"/>
<path d="M29.555 29.5105C30.608 29.5105 31.4616 28.6569 31.4616 27.604C31.4616 26.551 30.608 25.6974 29.555 25.6974C28.502 25.6974 27.6484 26.551 27.6484 27.604C27.6484 28.6569 28.502 29.5105 29.555 29.5105Z" stroke="white" stroke-width="2" stroke-linecap="round" stroke-linejoin="round"/>
</svg>
